/* XPM */
static char * image[] = 
{
"30 3 6 1",
"A c #BDD199",
"B c #D1E0B8",
"C c #FFFFFF",
"D c none",
"E c #000000",
"F c #FFFFFF",
"AAAAAAAAAAAAAAAAAAAAAAAAAAAAAA",
"CCCCCCCCCCCCCCCCCCCCCCCCCCCCCC",
"BBBBBBBBBBBBBBBBBBBBBBBBBBBBBB",
"XPMENDEXT"
};